<svg width="15" height="15" viewBox="0 0 15 15" fill="none" xmlns="http://www.w3.org/2000/svg">
<path d="M6.63304 1.00812C7.01752 0.339296 7.98248 0.339296 8.36696 1.00812L10.0049 3.85741C10.1468 4.10425 10.3872 4.27889 10.6658 4.33757L13.8818 5.01486C14.6367 5.17385 14.9349 6.09158 14.4176 6.66392L12.2139 9.10217C12.023 9.3134 11.9312 9.59598 11.9615 9.87908L12.3111 13.147C12.3932 13.914 11.6125 14.4812 10.9083 14.1661L7.90844 12.8238C7.64856 12.7075 7.35144 12.7075 7.09156 12.8238L4.09166 14.1661C3.38748 14.4812 2.60682 13.914 2.68889 13.147L3.03854 9.87908C3.06883 9.59598 2.97701 9.3134 2.78611 9.10217L0.582425 6.66392C0.065144 6.09158 0.363331 5.17385 1.11823 5.01486L4.33422 4.33757C4.61282 4.27889 4.8532 4.10425 4.9951 3.85741L6.63304 1.00812Z" fill="#FE970A"/>
</svg>
