<svg width="198" height="204" stroke="#fff" stroke-width="3" viewBox="0 0 198 204" fill="none" xmlns="http://www.w3.org/2000/svg">
<path d="M84.776 0.109778C68.7202 1.74819 56.0724 5.62998 44.7626 12.4357C34.4879 18.6365 25.1472 27.4587 18.3311 37.4656C6.11249 55.3369 -0.678428 79.1569 0.0536778 101.515C0.331373 110.035 1.13921 115.681 3.38602 124.73C5.02695 131.359 5.83479 133.955 7.70292 138.694C14.923 156.994 28.833 174.134 45.3938 185.2C49.5087 187.947 52.5381 189.662 57.2842 192.006C90.8348 208.44 130.495 207.961 158.971 190.72C162.228 188.754 167.554 184.898 170.357 182.478C180.606 173.58 189.669 161.758 196.511 148.399C198 145.5 198 145.5 198 143.282V141.038L197.066 140.181C196.208 139.4 195.955 139.324 194.642 139.324C192.724 139.324 192.345 139.602 187.018 144.895C182.802 149.079 176.39 154.423 170.836 158.38C159.552 166.396 147.964 171.362 136.655 173C132.918 173.555 121.508 173.655 118.731 173.177C116.509 172.773 114.313 172.143 114.313 171.866C114.313 171.639 116.257 170.732 117.595 170.353C119.21 169.875 123.224 169.345 129.207 168.816C136.427 168.186 139.734 167.707 142.713 166.925C148.646 165.388 151.675 163.346 153.241 159.842C153.922 158.33 154.175 154.852 153.695 153.692C152.912 151.776 150.034 151.701 144.834 153.39C139.356 155.179 135.948 155.28 126.935 153.919C118.705 152.684 116.181 152.407 111.914 152.255C106.663 152.079 103.003 152.381 98.6608 153.339C93.4603 154.499 88.8405 156.515 82.302 160.473L78.4648 162.792L76.3694 162.514C66.852 161.204 53.4722 155.482 44.384 148.827C40.9759 146.307 32.6955 137.963 29.8176 134.107C21.7644 123.369 16.5134 110.564 14.3171 96.3476C13.6355 91.8609 13.3578 80.9213 13.8375 76.3842C14.9735 65.3438 17.7757 55.7906 22.6227 46.4643C34.5636 23.5013 56.1229 8.27664 84.9527 2.47918C87.7044 1.92464 91.365 1.29448 93.1069 1.06762C97.449 0.513078 97.8782 0.38705 96.1363 0.160193C94.7226 -0.0162515 86.4169 -0.0666665 84.776 0.109778Z" fill="#E9138D"/>
</svg>
