<svg width="80" height="70" viewBox="0 0 80 70" fill="none" xmlns="http://www.w3.org/2000/svg">
<path d="M79.9808 19.5133C79.9808 19.5046 79.9818 19.496 79.9818 19.4873C79.9818 8.96963 71.4558 0.443604 60.9381 0.443604C50.4204 0.443604 41.8945 8.96948 41.8945 19.4873C41.8945 30.0051 50.4214 38.531 60.9382 38.531C63.0998 38.531 65.1689 38.1542 67.105 37.4903C62.8204 62.0693 43.6534 77.9202 61.421 64.8745C81.1228 50.4084 80.0029 20.0684 79.9808 19.5133Z" fill="#F4DFEB"/>
<path d="M19.0437 38.5309C21.2053 38.5309 23.2744 38.154 25.2114 37.4902C20.9257 62.0691 1.75875 77.92 19.5265 64.8744C39.2283 50.4084 38.1085 20.0684 38.0863 19.5133C38.0863 19.5046 38.0873 19.496 38.0873 19.4873C38.0873 8.96964 29.5614 0.443604 19.0437 0.443604C8.52588 0.443604 0 8.96948 0 19.4873C0 30.0051 8.52682 38.5309 19.0437 38.5309Z" fill="#F4DFEB"/>
</svg>
