<svg width="198" height="204" stroke="#fff" stroke-width="3" fill="none" xmlns="http://www.w3.org/2000/svg"><path d="M84.776.11C68.72 1.748 56.072 5.63 44.763 12.436c-10.275 6.2-19.616 15.023-26.432 25.03C6.112 55.336-.679 79.156.054 101.515c.277 8.52 1.085 14.166 3.332 23.215 1.641 6.629 2.449 9.225 4.317 13.964 7.22 18.3 21.13 35.44 37.69 46.506 4.116 2.747 7.145 4.462 11.891 6.806 33.55 16.434 73.211 15.955 101.687-1.286 3.257-1.966 8.583-5.822 11.386-8.242 10.249-8.898 19.312-20.72 26.154-34.079C198 145.5 198 145.5 198 143.282v-2.244l-.934-.857c-.858-.781-1.111-.857-2.424-.857-1.918 0-2.297.278-7.624 5.571-4.216 4.184-10.628 9.528-16.182 13.485-11.284 8.016-22.872 12.982-34.181 14.62-3.737.555-15.147.655-17.924.177-2.222-.404-4.418-1.034-4.418-1.311 0-.227 1.944-1.134 3.282-1.513 1.615-.478 5.629-1.008 11.612-1.537 7.22-.63 10.527-1.109 13.506-1.891 5.933-1.537 8.962-3.579 10.528-7.083.681-1.512.934-4.99.454-6.15-.783-1.916-3.661-1.991-8.861-.302-5.478 1.789-8.886 1.89-17.899.529-8.23-1.235-10.754-1.512-15.021-1.664-5.251-.176-8.911.126-13.253 1.084-5.2 1.16-9.82 3.176-16.359 7.134l-3.837 2.319-2.096-.278c-9.517-1.31-22.897-7.032-31.985-13.687-3.408-2.52-11.688-10.864-14.566-14.72-8.054-10.738-13.305-23.543-15.5-37.76-.682-4.486-.96-15.426-.48-19.963 1.136-11.04 3.938-20.593 8.785-29.92 11.94-22.963 33.5-38.187 62.33-43.985 2.751-.554 6.412-1.185 8.154-1.411 4.342-.555 4.771-.681 3.03-.908-1.414-.176-9.72-.227-11.361-.05Z" fill="#E9138D"/></svg>