<svg width="80" height="70" fill="none" xmlns="http://www.w3.org/2000/svg"><path d="m79.98 19.513.002-.026C79.982 8.97 71.456.444 60.938.444S41.894 8.969 41.894 19.487c0 10.518 8.527 19.044 19.044 19.044 2.162 0 4.23-.377 6.167-1.04-4.285 24.578-23.452 40.43-5.684 27.383 19.702-14.466 18.582-44.806 18.56-45.36ZM19.044 38.53c2.161 0 4.23-.376 6.167-1.04-4.285 24.58-23.452 40.43-5.684 27.384 19.701-14.466 18.581-44.806 18.56-45.36v-.027C38.087 8.97 29.561.444 19.044.444 8.526.444 0 8.969 0 19.487c0 10.518 8.527 19.044 19.044 19.044Z" fill="#F4DFEB"/></svg>